<?xml version="1.0" encoding="utf-8" standalone="no"?>
<!DOCTYPE svg PUBLIC "-//W3C//DTD SVG 1.1//EN"
  "http://www.w3.org/Graphics/SVG/1.1/DTD/svg11.dtd">
<svg xmlns:xlink="http://www.w3.org/1999/xlink" width="781.3475pt" height="574.81625pt" viewBox="0 0 781.3475 574.81625" xmlns="http://www.w3.org/2000/svg" version="1.1">
 <metadata>
  <rdf:RDF xmlns:dc="http://purl.org/dc/elements/1.1/" xmlns:cc="http://creativecommons.org/ns#" xmlns:rdf="http://www.w3.org/1999/02/22-rdf-syntax-ns#">
   <cc:Work>
    <dc:type rdf:resource="http://purl.org/dc/dcmitype/StillImage"/>
    <dc:date>2022-11-27T22:13:21.112503</dc:date>
    <dc:format>image/svg+xml</dc:format>
    <dc:creator>
     <cc:Agent>
      <dc:title>Matplotlib v3.5.1, https://matplotlib.org/</dc:title>
     </cc:Agent>
    </dc:creator>
   </cc:Work>
  </rdf:RDF>
 </metadata>
 <defs>
  <style type="text/css">*{stroke-linejoin: round; stroke-linecap: butt}</style>
 </defs>
 <g id="figure_1">
  <g id="patch_1">
   <path d="M 0 574.81625 
L 781.3475 574.81625 
L 781.3475 0 
L 0 0 
z
" style="fill: #ffffff"/>
  </g>
  <g id="axes_1">
   <g id="patch_2">
    <path d="M 216.1475 550.8 
L 774.1475 550.8 
L 774.1475 7.2 
L 216.1475 7.2 
z
" style="fill: #ffffff"/>
   </g>
   <g id="matplotlib.axis_1">
    <g id="xtick_1">
     <g id="line2d_1">
      <defs>
       <path id="me48161f9f3" d="M 0 0 
L 0 6 
" style="stroke: #262626; stroke-width: 1.25"/>
      </defs>
      <g>
       <use xlink:href="#me48161f9f3" x="216.1475" y="550.8" style="fill: #262626; stroke: #262626; stroke-width: 1.25"/>
      </g>
     </g>
     <g id="text_1">
      <text style="fill: #262626; font: 8px 'sans-serif'; text-anchor: middle" x="216.1475" y="566.02625" transform="rotate(-0, 216.1475, 566.02625)">0</text>
     </g>
    </g>
    <g id="xtick_2">
     <g id="line2d_2">
      <g>
       <use xlink:href="#me48161f9f3" x="301.176071" y="550.8" style="fill: #262626; stroke: #262626; stroke-width: 1.25"/>
      </g>
     </g>
     <g id="text_2">
      <text style="fill: #262626; font: 8px 'sans-serif'; text-anchor: middle" x="301.176071" y="566.02625" transform="rotate(-0, 301.176071, 566.02625)">20000</text>
     </g>
    </g>
    <g id="xtick_3">
     <g id="line2d_3">
      <g>
       <use xlink:href="#me48161f9f3" x="386.204643" y="550.8" style="fill: #262626; stroke: #262626; stroke-width: 1.25"/>
      </g>
     </g>
     <g id="text_3">
      <text style="fill: #262626; font: 8px 'sans-serif'; text-anchor: middle" x="386.204643" y="566.02625" transform="rotate(-0, 386.204643, 566.02625)">40000</text>
     </g>
    </g>
    <g id="xtick_4">
     <g id="line2d_4">
      <g>
       <use xlink:href="#me48161f9f3" x="471.233214" y="550.8" style="fill: #262626; stroke: #262626; stroke-width: 1.25"/>
      </g>
     </g>
     <g id="text_4">
      <text style="fill: #262626; font: 8px 'sans-serif'; text-anchor: middle" x="471.233214" y="566.02625" transform="rotate(-0, 471.233214, 566.02625)">60000</text>
     </g>
    </g>
    <g id="xtick_5">
     <g id="line2d_5">
      <g>
       <use xlink:href="#me48161f9f3" x="556.261786" y="550.8" style="fill: #262626; stroke: #262626; stroke-width: 1.25"/>
      </g>
     </g>
     <g id="text_5">
      <text style="fill: #262626; font: 8px 'sans-serif'; text-anchor: middle" x="556.261786" y="566.02625" transform="rotate(-0, 556.261786, 566.02625)">80000</text>
     </g>
    </g>
    <g id="xtick_6">
     <g id="line2d_6">
      <g>
       <use xlink:href="#me48161f9f3" x="641.290357" y="550.8" style="fill: #262626; stroke: #262626; stroke-width: 1.25"/>
      </g>
     </g>
     <g id="text_6">
      <text style="fill: #262626; font: 8px 'sans-serif'; text-anchor: middle" x="641.290357" y="566.02625" transform="rotate(-0, 641.290357, 566.02625)">100000</text>
     </g>
    </g>
    <g id="xtick_7">
     <g id="line2d_7">
      <g>
       <use xlink:href="#me48161f9f3" x="726.318929" y="550.8" style="fill: #262626; stroke: #262626; stroke-width: 1.25"/>
      </g>
     </g>
     <g id="text_7">
      <text style="fill: #262626; font: 8px 'sans-serif'; text-anchor: middle" x="726.318929" y="566.02625" transform="rotate(-0, 726.318929, 566.02625)">120000</text>
     </g>
    </g>
   </g>
   <g id="matplotlib.axis_2">
    <g id="ytick_1">
     <g id="line2d_8">
      <defs>
       <path id="mc23b8b8f23" d="M 0 0 
L -6 0 
" style="stroke: #262626; stroke-width: 1.25"/>
      </defs>
      <g>
       <use xlink:href="#mc23b8b8f23" x="216.1475" y="523.62" style="fill: #262626; stroke: #262626; stroke-width: 1.25"/>
      </g>
     </g>
     <g id="text_8">
      <text style="fill: #262626; font: 8px 'sans-serif'; text-anchor: end" x="206.6475" y="526.483125" transform="rotate(-0, 206.6475, 526.483125)">PETROLEUM ENGINEERING</text>
     </g>
    </g>
    <g id="ytick_2">
     <g id="line2d_9">
      <g>
       <use xlink:href="#mc23b8b8f23" x="216.1475" y="469.26" style="fill: #262626; stroke: #262626; stroke-width: 1.25"/>
      </g>
     </g>
     <g id="text_9">
      <text style="fill: #262626; font: 8px 'sans-serif'; text-anchor: end" x="206.6475" y="472.123125" transform="rotate(-0, 206.6475, 472.123125)">MINING AND MINERAL ENGINEERING</text>
     </g>
    </g>
    <g id="ytick_3">
     <g id="line2d_10">
      <g>
       <use xlink:href="#mc23b8b8f23" x="216.1475" y="414.9" style="fill: #262626; stroke: #262626; stroke-width: 1.25"/>
      </g>
     </g>
     <g id="text_10">
      <text style="fill: #262626; font: 8px 'sans-serif'; text-anchor: end" x="206.6475" y="417.763125" transform="rotate(-0, 206.6475, 417.763125)">METALLURGICAL ENGINEERING</text>
     </g>
    </g>
    <g id="ytick_4">
     <g id="line2d_11">
      <g>
       <use xlink:href="#mc23b8b8f23" x="216.1475" y="360.54" style="fill: #262626; stroke: #262626; stroke-width: 1.25"/>
      </g>
     </g>
     <g id="text_11">
      <text style="fill: #262626; font: 8px 'sans-serif'; text-anchor: end" x="206.6475" y="363.403125" transform="rotate(-0, 206.6475, 363.403125)">NAVAL ARCHITECTURE AND MARINE ENGINEERING</text>
     </g>
    </g>
    <g id="ytick_5">
     <g id="line2d_12">
      <g>
       <use xlink:href="#mc23b8b8f23" x="216.1475" y="306.18" style="fill: #262626; stroke: #262626; stroke-width: 1.25"/>
      </g>
     </g>
     <g id="text_12">
      <text style="fill: #262626; font: 8px 'sans-serif'; text-anchor: end" x="206.6475" y="309.043125" transform="rotate(-0, 206.6475, 309.043125)">CHEMICAL ENGINEERING</text>
     </g>
    </g>
    <g id="ytick_6">
     <g id="line2d_13">
      <g>
       <use xlink:href="#mc23b8b8f23" x="216.1475" y="251.82" style="fill: #262626; stroke: #262626; stroke-width: 1.25"/>
      </g>
     </g>
     <g id="text_13">
      <text style="fill: #262626; font: 8px 'sans-serif'; text-anchor: end" x="206.6475" y="254.683125" transform="rotate(-0, 206.6475, 254.683125)">NUCLEAR ENGINEERING</text>
     </g>
    </g>
    <g id="ytick_7">
     <g id="line2d_14">
      <g>
       <use xlink:href="#mc23b8b8f23" x="216.1475" y="197.46" style="fill: #262626; stroke: #262626; stroke-width: 1.25"/>
      </g>
     </g>
     <g id="text_14">
      <text style="fill: #262626; font: 8px 'sans-serif'; text-anchor: end" x="206.6475" y="200.323125" transform="rotate(-0, 206.6475, 200.323125)">ACTUARIAL SCIENCE</text>
     </g>
    </g>
    <g id="ytick_8">
     <g id="line2d_15">
      <g>
       <use xlink:href="#mc23b8b8f23" x="216.1475" y="143.1" style="fill: #262626; stroke: #262626; stroke-width: 1.25"/>
      </g>
     </g>
     <g id="text_15">
      <text style="fill: #262626; font: 8px 'sans-serif'; text-anchor: end" x="206.6475" y="145.963125" transform="rotate(-0, 206.6475, 145.963125)">ASTRONOMY AND ASTROPHYSICS</text>
     </g>
    </g>
    <g id="ytick_9">
     <g id="line2d_16">
      <g>
       <use xlink:href="#mc23b8b8f23" x="216.1475" y="88.74" style="fill: #262626; stroke: #262626; stroke-width: 1.25"/>
      </g>
     </g>
     <g id="text_16">
      <text style="fill: #262626; font: 8px 'sans-serif'; text-anchor: end" x="206.6475" y="91.603125" transform="rotate(-0, 206.6475, 91.603125)">MECHANICAL ENGINEERING</text>
     </g>
    </g>
    <g id="ytick_10">
     <g id="line2d_17">
      <g>
       <use xlink:href="#mc23b8b8f23" x="216.1475" y="34.38" style="fill: #262626; stroke: #262626; stroke-width: 1.25"/>
      </g>
     </g>
     <g id="text_17">
      <text style="fill: #262626; font: 8px 'sans-serif'; text-anchor: end" x="206.6475" y="37.243125" transform="rotate(-0, 206.6475, 37.243125)">ELECTRICAL ENGINEERING</text>
     </g>
    </g>
   </g>
   <g id="patch_3">
    <path d="M 216.1475 537.21 
L 620.033214 537.21 
L 620.033214 528.15 
L 216.1475 528.15 
z
" clip-path="url(#pfaa604c332)" style="fill: #48d1cc; stroke: #ffffff; stroke-linejoin: miter"/>
   </g>
   <g id="patch_4">
    <path d="M 216.1475 482.85 
L 449.976071 482.85 
L 449.976071 473.79 
L 216.1475 473.79 
z
" clip-path="url(#pfaa604c332)" style="fill: #48d1cc; stroke: #ffffff; stroke-linejoin: miter"/>
   </g>
   <g id="patch_5">
    <path d="M 216.1475 428.49 
L 428.718929 428.49 
L 428.718929 419.43 
L 216.1475 419.43 
z
" clip-path="url(#pfaa604c332)" style="fill: #48d1cc; stroke: #ffffff; stroke-linejoin: miter"/>
   </g>
   <g id="patch_6">
    <path d="M 216.1475 374.13 
L 398.958929 374.13 
L 398.958929 365.07 
L 216.1475 365.07 
z
" clip-path="url(#pfaa604c332)" style="fill: #48d1cc; stroke: #ffffff; stroke-linejoin: miter"/>
   </g>
   <g id="patch_7">
    <path d="M 216.1475 319.77 
L 428.718929 319.77 
L 428.718929 310.71 
L 216.1475 310.71 
z
" clip-path="url(#pfaa604c332)" style="fill: #48d1cc; stroke: #ffffff; stroke-linejoin: miter"/>
   </g>
   <g id="patch_8">
    <path d="M 216.1475 265.41 
L 428.718929 265.41 
L 428.718929 256.35 
L 216.1475 256.35 
z
" clip-path="url(#pfaa604c332)" style="fill: #48d1cc; stroke: #ffffff; stroke-linejoin: miter"/>
   </g>
   <g id="patch_9">
    <path d="M 216.1475 211.05 
L 441.473214 211.05 
L 441.473214 201.99 
L 216.1475 201.99 
z
" clip-path="url(#pfaa604c332)" style="fill: #48d1cc; stroke: #ffffff; stroke-linejoin: miter"/>
   </g>
   <g id="patch_10">
    <path d="M 216.1475 156.69 
L 350.0675 156.69 
L 350.0675 147.63 
L 216.1475 147.63 
z
" clip-path="url(#pfaa604c332)" style="fill: #48d1cc; stroke: #ffffff; stroke-linejoin: miter"/>
   </g>
   <g id="patch_11">
    <path d="M 216.1475 102.33 
L 420.216071 102.33 
L 420.216071 93.27 
L 216.1475 93.27 
z
" clip-path="url(#pfaa604c332)" style="fill: #48d1cc; stroke: #ffffff; stroke-linejoin: miter"/>
   </g>
   <g id="patch_12">
    <path d="M 216.1475 47.97 
L 407.461786 47.97 
L 407.461786 38.91 
L 216.1475 38.91 
z
" clip-path="url(#pfaa604c332)" style="fill: #48d1cc; stroke: #ffffff; stroke-linejoin: miter"/>
   </g>
   <g id="patch_13">
    <path d="M 216.1475 528.15 
L 683.804643 528.15 
L 683.804643 519.09 
L 216.1475 519.09 
z
" clip-path="url(#pfaa604c332)" style="fill: #b8860b; stroke: #ffffff; stroke-linejoin: miter"/>
   </g>
   <g id="patch_14">
    <path d="M 216.1475 473.79 
L 535.004643 473.79 
L 535.004643 464.73 
L 216.1475 464.73 
z
" clip-path="url(#pfaa604c332)" style="fill: #b8860b; stroke: #ffffff; stroke-linejoin: miter"/>
   </g>
   <g id="patch_15">
    <path d="M 216.1475 419.43 
L 526.501786 419.43 
L 526.501786 410.37 
L 216.1475 410.37 
z
" clip-path="url(#pfaa604c332)" style="fill: #b8860b; stroke: #ffffff; stroke-linejoin: miter"/>
   </g>
   <g id="patch_16">
    <path d="M 216.1475 365.07 
L 513.7475 365.07 
L 513.7475 356.01 
L 216.1475 356.01 
z
" clip-path="url(#pfaa604c332)" style="fill: #b8860b; stroke: #ffffff; stroke-linejoin: miter"/>
   </g>
   <g id="patch_17">
    <path d="M 216.1475 310.71 
L 492.490357 310.71 
L 492.490357 301.65 
L 216.1475 301.65 
z
" clip-path="url(#pfaa604c332)" style="fill: #b8860b; stroke: #ffffff; stroke-linejoin: miter"/>
   </g>
   <g id="patch_18">
    <path d="M 216.1475 256.35 
L 492.490357 256.35 
L 492.490357 247.29 
L 216.1475 247.29 
z
" clip-path="url(#pfaa604c332)" style="fill: #b8860b; stroke: #ffffff; stroke-linejoin: miter"/>
   </g>
   <g id="patch_19">
    <path d="M 216.1475 201.99 
L 479.736071 201.99 
L 479.736071 192.93 
L 216.1475 192.93 
z
" clip-path="url(#pfaa604c332)" style="fill: #b8860b; stroke: #ffffff; stroke-linejoin: miter"/>
   </g>
   <g id="patch_20">
    <path d="M 216.1475 147.63 
L 479.736071 147.63 
L 479.736071 138.57 
L 216.1475 138.57 
z
" clip-path="url(#pfaa604c332)" style="fill: #b8860b; stroke: #ffffff; stroke-linejoin: miter"/>
   </g>
   <g id="patch_21">
    <path d="M 216.1475 93.27 
L 471.233214 93.27 
L 471.233214 84.21 
L 216.1475 84.21 
z
" clip-path="url(#pfaa604c332)" style="fill: #b8860b; stroke: #ffffff; stroke-linejoin: miter"/>
   </g>
   <g id="patch_22">
    <path d="M 216.1475 38.91 
L 471.233214 38.91 
L 471.233214 29.85 
L 216.1475 29.85 
z
" clip-path="url(#pfaa604c332)" style="fill: #b8860b; stroke: #ffffff; stroke-linejoin: miter"/>
   </g>
   <g id="patch_23">
    <path d="M 216.1475 519.09 
L 747.576071 519.09 
L 747.576071 510.03 
L 216.1475 510.03 
z
" clip-path="url(#pfaa604c332)" style="fill: #4682b4; stroke: #ffffff; stroke-linejoin: miter"/>
   </g>
   <g id="patch_24">
    <path d="M 216.1475 464.73 
L 598.776071 464.73 
L 598.776071 455.67 
L 216.1475 455.67 
z
" clip-path="url(#pfaa604c332)" style="fill: #4682b4; stroke: #ffffff; stroke-linejoin: miter"/>
   </g>
   <g id="patch_25">
    <path d="M 216.1475 410.37 
L 662.5475 410.37 
L 662.5475 401.31 
L 216.1475 401.31 
z
" clip-path="url(#pfaa604c332)" style="fill: #4682b4; stroke: #ffffff; stroke-linejoin: miter"/>
   </g>
   <g id="patch_26">
    <path d="M 216.1475 356.01 
L 556.261786 356.01 
L 556.261786 346.95 
L 216.1475 346.95 
z
" clip-path="url(#pfaa604c332)" style="fill: #4682b4; stroke: #ffffff; stroke-linejoin: miter"/>
   </g>
   <g id="patch_27">
    <path d="M 216.1475 301.65 
L 535.004643 301.65 
L 535.004643 292.59 
L 216.1475 292.59 
z
" clip-path="url(#pfaa604c332)" style="fill: #4682b4; stroke: #ffffff; stroke-linejoin: miter"/>
   </g>
   <g id="patch_28">
    <path d="M 216.1475 247.29 
L 649.793214 247.29 
L 649.793214 238.23 
L 216.1475 238.23 
z
" clip-path="url(#pfaa604c332)" style="fill: #4682b4; stroke: #ffffff; stroke-linejoin: miter"/>
   </g>
   <g id="patch_29">
    <path d="M 216.1475 192.93 
L 522.250357 192.93 
L 522.250357 183.87 
L 216.1475 183.87 
z
" clip-path="url(#pfaa604c332)" style="fill: #4682b4; stroke: #ffffff; stroke-linejoin: miter"/>
   </g>
   <g id="patch_30">
    <path d="M 216.1475 138.57 
L 679.553214 138.57 
L 679.553214 129.51 
L 216.1475 129.51 
z
" clip-path="url(#pfaa604c332)" style="fill: #4682b4; stroke: #ffffff; stroke-linejoin: miter"/>
   </g>
   <g id="patch_31">
    <path d="M 216.1475 84.21 
L 513.7475 84.21 
L 513.7475 75.15 
L 216.1475 75.15 
z
" clip-path="url(#pfaa604c332)" style="fill: #4682b4; stroke: #ffffff; stroke-linejoin: miter"/>
   </g>
   <g id="patch_32">
    <path d="M 216.1475 29.85 
L 522.250357 29.85 
L 522.250357 20.79 
L 216.1475 20.79 
z
" clip-path="url(#pfaa604c332)" style="fill: #4682b4; stroke: #ffffff; stroke-linejoin: miter"/>
   </g>
   <g id="patch_33">
    <path d="M 216.1475 550.8 
L 216.1475 7.2 
" style="fill: none; stroke: #262626; stroke-width: 1.25; stroke-linejoin: miter; stroke-linecap: square"/>
   </g>
   <g id="patch_34">
    <path d="M 774.1475 550.8 
L 774.1475 7.2 
" style="fill: none; stroke: #262626; stroke-width: 1.25; stroke-linejoin: miter; stroke-linecap: square"/>
   </g>
   <g id="patch_35">
    <path d="M 216.1475 550.8 
L 774.1475 550.8 
" style="fill: none; stroke: #262626; stroke-width: 1.25; stroke-linejoin: miter; stroke-linecap: square"/>
   </g>
   <g id="patch_36">
    <path d="M 216.1475 7.2 
L 774.1475 7.2 
" style="fill: none; stroke: #262626; stroke-width: 1.25; stroke-linejoin: miter; stroke-linecap: square"/>
   </g>
   <g id="legend_1">
    <g id="patch_37">
     <path d="M 716.71125 47.54875 
L 768.5475 47.54875 
Q 770.1475 47.54875 770.1475 45.94875 
L 770.1475 12.8 
Q 770.1475 11.2 768.5475 11.2 
L 716.71125 11.2 
Q 715.11125 11.2 715.11125 12.8 
L 715.11125 45.94875 
Q 715.11125 47.54875 716.71125 47.54875 
z
" style="fill: #ffffff; opacity: 0.8; stroke: #cccccc; stroke-linejoin: miter"/>
    </g>
    <g id="patch_38">
     <path d="M 718.31125 20.12625 
L 734.31125 20.12625 
L 734.31125 14.52625 
L 718.31125 14.52625 
z
" style="fill: #48d1cc; stroke: #ffffff; stroke-linejoin: miter"/>
    </g>
    <g id="text_18">
     <text style="fill: #262626; font: 8px 'sans-serif'; text-anchor: start" x="740.71125" y="20.12625" transform="rotate(-0, 740.71125, 20.12625)">P25th</text>
    </g>
    <g id="patch_39">
     <path d="M 718.31125 31.4425 
L 734.31125 31.4425 
L 734.31125 25.8425 
L 718.31125 25.8425 
z
" style="fill: #b8860b; stroke: #ffffff; stroke-linejoin: miter"/>
    </g>
    <g id="text_19">
     <text style="fill: #262626; font: 8px 'sans-serif'; text-anchor: start" x="740.71125" y="31.4425" transform="rotate(-0, 740.71125, 31.4425)">Median</text>
    </g>
    <g id="patch_40">
     <path d="M 718.31125 42.75875 
L 734.31125 42.75875 
L 734.31125 37.15875 
L 718.31125 37.15875 
z
" style="fill: #4682b4; stroke: #ffffff; stroke-linejoin: miter"/>
    </g>
    <g id="text_20">
     <text style="fill: #262626; font: 8px 'sans-serif'; text-anchor: start" x="740.71125" y="42.75875" transform="rotate(-0, 740.71125, 42.75875)">P75th</text>
    </g>
   </g>
  </g>
 </g>
 <defs>
  <clipPath id="pfaa604c332">
   <rect x="216.1475" y="7.2" width="558" height="543.6"/>
  </clipPath>
 </defs>
</svg>
