<?xml version="1.0" encoding="utf-8" standalone="no"?>
<!DOCTYPE svg PUBLIC "-//W3C//DTD SVG 1.1//EN"
  "http://www.w3.org/Graphics/SVG/1.1/DTD/svg11.dtd">
<svg xmlns:xlink="http://www.w3.org/1999/xlink" width="787.62625pt" height="640.68pt" viewBox="0 0 787.62625 640.68" xmlns="http://www.w3.org/2000/svg" version="1.1">
 <metadata>
  <rdf:RDF xmlns:dc="http://purl.org/dc/elements/1.1/" xmlns:cc="http://creativecommons.org/ns#" xmlns:rdf="http://www.w3.org/1999/02/22-rdf-syntax-ns#">
   <cc:Work>
    <dc:type rdf:resource="http://purl.org/dc/dcmitype/StillImage"/>
    <dc:date>2022-11-27T22:17:24.875183</dc:date>
    <dc:format>image/svg+xml</dc:format>
    <dc:creator>
     <cc:Agent>
      <dc:title>Matplotlib v3.5.1, https://matplotlib.org/</dc:title>
     </cc:Agent>
    </dc:creator>
   </cc:Work>
  </rdf:RDF>
 </metadata>
 <defs>
  <style type="text/css">*{stroke-linejoin: round; stroke-linecap: butt}</style>
 </defs>
 <g id="figure_1">
  <g id="patch_1">
   <path d="M 0 640.68 
L 787.62625 640.68 
L 787.62625 0 
L 0 0 
z
" style="fill: #ffffff"/>
  </g>
  <g id="axes_1">
   <g id="patch_2">
    <path d="M 55.02625 605.16 
L 780.42625 605.16 
L 780.42625 7.2 
L 55.02625 7.2 
z
" style="fill: #ffffff"/>
   </g>
   <g id="matplotlib.axis_1">
    <g id="xtick_1">
     <g id="text_1">
      <text style="fill: #262626; font: 8px 'sans-serif'; text-anchor: middle" x="236.37625" y="620.38625" transform="rotate(-0, 236.37625, 620.38625)">Education</text>
     </g>
    </g>
    <g id="xtick_2">
     <g id="text_2">
      <text style="fill: #262626; font: 8px 'sans-serif'; text-anchor: middle" x="599.07625" y="620.38625" transform="rotate(-0, 599.07625, 620.38625)">Engineering</text>
     </g>
    </g>
    <g id="text_3">
     <text style="fill: #262626; font: 8px 'sans-serif'; text-anchor: middle" x="417.72625" y="631.79625" transform="rotate(-0, 417.72625, 631.79625)">Major_category</text>
    </g>
   </g>
   <g id="matplotlib.axis_2">
    <g id="ytick_1">
     <g id="line2d_1">
      <path d="M 55.02625 577.76005 
L 780.42625 577.76005 
" clip-path="url(#pf648dc962e)" style="fill: none; stroke: #cccccc; stroke-linecap: round"/>
     </g>
     <g id="text_4">
      <text style="fill: #262626; font: 8px 'sans-serif'; text-anchor: end" x="45.52625" y="580.623175" transform="rotate(-0, 45.52625, 580.623175)">−50000</text>
     </g>
    </g>
    <g id="ytick_2">
     <g id="line2d_2">
      <path d="M 55.02625 469.146277 
L 780.42625 469.146277 
" clip-path="url(#pf648dc962e)" style="fill: none; stroke: #cccccc; stroke-linecap: round"/>
     </g>
     <g id="text_5">
      <text style="fill: #262626; font: 8px 'sans-serif'; text-anchor: end" x="45.52625" y="472.009402" transform="rotate(-0, 45.52625, 472.009402)">0</text>
     </g>
    </g>
    <g id="ytick_3">
     <g id="line2d_3">
      <path d="M 55.02625 360.532504 
L 780.42625 360.532504 
" clip-path="url(#pf648dc962e)" style="fill: none; stroke: #cccccc; stroke-linecap: round"/>
     </g>
     <g id="text_6">
      <text style="fill: #262626; font: 8px 'sans-serif'; text-anchor: end" x="45.52625" y="363.395629" transform="rotate(-0, 45.52625, 363.395629)">50000</text>
     </g>
    </g>
    <g id="ytick_4">
     <g id="line2d_4">
      <path d="M 55.02625 251.918731 
L 780.42625 251.918731 
" clip-path="url(#pf648dc962e)" style="fill: none; stroke: #cccccc; stroke-linecap: round"/>
     </g>
     <g id="text_7">
      <text style="fill: #262626; font: 8px 'sans-serif'; text-anchor: end" x="45.52625" y="254.781856" transform="rotate(-0, 45.52625, 254.781856)">100000</text>
     </g>
    </g>
    <g id="ytick_5">
     <g id="line2d_5">
      <path d="M 55.02625 143.304958 
L 780.42625 143.304958 
" clip-path="url(#pf648dc962e)" style="fill: none; stroke: #cccccc; stroke-linecap: round"/>
     </g>
     <g id="text_8">
      <text style="fill: #262626; font: 8px 'sans-serif'; text-anchor: end" x="45.52625" y="146.168083" transform="rotate(-0, 45.52625, 146.168083)">150000</text>
     </g>
    </g>
    <g id="ytick_6">
     <g id="line2d_6">
      <path d="M 55.02625 34.691185 
L 780.42625 34.691185 
" clip-path="url(#pf648dc962e)" style="fill: none; stroke: #cccccc; stroke-linecap: round"/>
     </g>
     <g id="text_9">
      <text style="fill: #262626; font: 8px 'sans-serif'; text-anchor: end" x="45.52625" y="37.55431" transform="rotate(-0, 45.52625, 37.55431)">200000</text>
     </g>
    </g>
    <g id="text_10">
     <text style="fill: #262626; font: 8px 'sans-serif'; text-anchor: middle" x="12.92625" y="306.18" transform="rotate(-90, 12.92625, 306.18)">Employed</text>
    </g>
   </g>
   <g id="PolyCollection_1">
    <defs>
     <path id="md2ca6c0fe9" d="M 240.53829 -62.7 
L 232.21421 -62.7 
L 231.20956 -68.190909 
L 230.020216 -73.681818 
L 228.62734 -79.172727 
L 227.013821 -84.663636 
L 225.165282 -90.154545 
L 223.071171 -95.645455 
L 220.725875 -101.136364 
L 218.129812 -106.627273 
L 215.290425 -112.118182 
L 212.223023 -117.609091 
L 208.951382 -123.1 
L 205.508057 -128.590909 
L 201.934333 -134.081818 
L 198.279788 -139.572727 
L 194.601436 -145.063636 
L 190.962458 -150.554545 
L 187.430544 -156.045455 
L 184.075898 -161.536364 
L 180.968987 -167.027273 
L 178.178128 -172.518182 
L 175.767022 -178.009091 
L 173.79237 -183.5 
L 172.301671 -188.990909 
L 171.331354 -194.481818 
L 170.905301 -199.972727 
L 171.033885 -205.463636 
L 171.713547 -210.954545 
L 172.926942 -216.445455 
L 174.643652 -221.936364 
L 176.821418 -227.427273 
L 179.407813 -232.918182 
L 182.342284 -238.409091 
L 185.558427 -243.9 
L 188.986397 -249.390909 
L 192.555316 -254.881818 
L 196.19557 -260.372727 
L 199.840899 -265.863636 
L 203.43018 -271.354545 
L 206.908862 -276.845455 
L 210.230004 -282.336364 
L 213.354908 -287.827273 
L 216.253372 -293.318182 
L 218.903579 -298.809091 
L 221.29168 -304.3 
L 223.411142 -309.790909 
L 225.26191 -315.281818 
L 226.849462 -320.772727 
L 228.183827 -326.263636 
L 229.2786 -331.754545 
L 230.150024 -337.245455 
L 230.816163 -342.736364 
L 231.29618 -348.227273 
L 231.609739 -353.718182 
L 231.776536 -359.209091 
L 231.815929 -364.7 
L 231.746679 -370.190909 
L 231.586761 -375.681818 
L 231.353241 -381.172727 
L 231.0622 -386.663636 
L 230.728683 -392.154545 
L 230.366668 -397.645455 
L 229.989045 -403.136364 
L 229.607603 -408.627273 
L 229.233019 -414.118182 
L 228.874851 -419.609091 
L 228.541548 -425.1 
L 228.240449 -430.590909 
L 227.977812 -436.081818 
L 227.758837 -441.572727 
L 227.587696 -447.063636 
L 227.467576 -452.554545 
L 227.400714 -458.045455 
L 227.388431 -463.536364 
L 227.431167 -469.027273 
L 227.528503 -474.518182 
L 227.679183 -480.009091 
L 227.881138 -485.5 
L 228.131503 -490.990909 
L 228.426657 -496.481818 
L 228.762259 -501.972727 
L 229.13332 -507.463636 
L 229.534287 -512.954545 
L 229.959154 -518.445455 
L 230.401595 -523.936364 
L 230.85512 -529.427273 
L 231.313237 -534.918182 
L 231.76963 -540.409091 
L 232.218325 -545.9 
L 232.653847 -551.390909 
L 233.071358 -556.881818 
L 233.46676 -562.372727 
L 233.836771 -567.863636 
L 234.178963 -573.354545 
L 234.491762 -578.845455 
L 234.774411 -584.336364 
L 235.02691 -589.827273 
L 235.249929 -595.318182 
L 235.4447 -600.809091 
L 235.612903 -606.3 
L 237.139597 -606.3 
L 237.139597 -606.3 
L 237.3078 -600.809091 
L 237.502571 -595.318182 
L 237.72559 -589.827273 
L 237.978089 -584.336364 
L 238.260738 -578.845455 
L 238.573537 -573.354545 
L 238.915729 -567.863636 
L 239.28574 -562.372727 
L 239.681142 -556.881818 
L 240.098653 -551.390909 
L 240.534175 -545.9 
L 240.98287 -540.409091 
L 241.439263 -534.918182 
L 241.89738 -529.427273 
L 242.350905 -523.936364 
L 242.793346 -518.445455 
L 243.218213 -512.954545 
L 243.61918 -507.463636 
L 243.990241 -501.972727 
L 244.325843 -496.481818 
L 244.620997 -490.990909 
L 244.871362 -485.5 
L 245.073317 -480.009091 
L 245.223997 -474.518182 
L 245.321333 -469.027273 
L 245.364069 -463.536364 
L 245.351786 -458.045455 
L 245.284924 -452.554545 
L 245.164804 -447.063636 
L 244.993663 -441.572727 
L 244.774688 -436.081818 
L 244.512051 -430.590909 
L 244.210952 -425.1 
L 243.877649 -419.609091 
L 243.519481 -414.118182 
L 243.144897 -408.627273 
L 242.763455 -403.136364 
L 242.385832 -397.645455 
L 242.023817 -392.154545 
L 241.6903 -386.663636 
L 241.399259 -381.172727 
L 241.165739 -375.681818 
L 241.005821 -370.190909 
L 240.936571 -364.7 
L 240.975964 -359.209091 
L 241.142761 -353.718182 
L 241.45632 -348.227273 
L 241.936337 -342.736364 
L 242.602476 -337.245455 
L 243.4739 -331.754545 
L 244.568673 -326.263636 
L 245.903038 -320.772727 
L 247.49059 -315.281818 
L 249.341358 -309.790909 
L 251.46082 -304.3 
L 253.848921 -298.809091 
L 256.499128 -293.318182 
L 259.397592 -287.827273 
L 262.522496 -282.336364 
L 265.843638 -276.845455 
L 269.32232 -271.354545 
L 272.911601 -265.863636 
L 276.55693 -260.372727 
L 280.197184 -254.881818 
L 283.766103 -249.390909 
L 287.194073 -243.9 
L 290.410216 -238.409091 
L 293.344687 -232.918182 
L 295.931082 -227.427273 
L 298.108848 -221.936364 
L 299.825558 -216.445455 
L 301.038953 -210.954545 
L 301.718615 -205.463636 
L 301.847199 -199.972727 
L 301.421146 -194.481818 
L 300.450829 -188.990909 
L 298.96013 -183.5 
L 296.985478 -178.009091 
L 294.574372 -172.518182 
L 291.783513 -167.027273 
L 288.676602 -161.536364 
L 285.321956 -156.045455 
L 281.790042 -150.554545 
L 278.151064 -145.063636 
L 274.472712 -139.572727 
L 270.818167 -134.081818 
L 267.244443 -128.590909 
L 263.801118 -123.1 
L 260.529477 -117.609091 
L 257.462075 -112.118182 
L 254.622688 -106.627273 
L 252.026625 -101.136364 
L 249.681329 -95.645455 
L 247.587218 -90.154545 
L 245.738679 -84.663636 
L 244.12516 -79.172727 
L 242.732284 -73.681818 
L 241.54294 -68.190909 
L 240.53829 -62.7 
z
" style="stroke: #4c4c4c; stroke-width: 1.5"/>
    </defs>
    <g clip-path="url(#pf648dc962e)">
     <use xlink:href="#md2ca6c0fe9" x="0" y="640.68" style="fill: #5875a4; stroke: #4c4c4c; stroke-width: 1.5"/>
    </g>
   </g>
   <g id="PolyCollection_2">
    <defs>
     <path id="m69d9cff727" d="M 610.310106 -128.652593 
L 587.842394 -128.652593 
L 584.695438 -131.209435 
L 580.900894 -133.766277 
L 576.396403 -136.32312 
L 571.133542 -138.879962 
L 565.083789 -141.436804 
L 558.244491 -143.993647 
L 550.644319 -146.550489 
L 542.347681 -149.107332 
L 533.45751 -151.664174 
L 524.115957 -154.221016 
L 514.502572 -156.777859 
L 504.829775 -159.334701 
L 495.335618 -161.891543 
L 486.274092 -164.448386 
L 477.903485 -167.005228 
L 470.473512 -169.562071 
L 464.212106 -172.118913 
L 459.312847 -174.675755 
L 455.924001 -177.232598 
L 454.140028 -179.78944 
L 453.99625 -182.346282 
L 455.467074 -184.903125 
L 458.467917 -187.459967 
L 462.860615 -190.01681 
L 468.461858 -192.573652 
L 475.053946 -195.130494 
L 482.397 -197.687337 
L 490.24172 -200.244179 
L 498.341769 -202.801021 
L 506.465 -205.357864 
L 514.402874 -207.914706 
L 521.977625 -210.471549 
L 529.046972 -213.028391 
L 535.506332 -215.585233 
L 541.288739 -218.142076 
L 546.362751 -220.698918 
L 550.728785 -223.255761 
L 554.414322 -225.812603 
L 557.468456 -228.369445 
L 559.956211 -230.926288 
L 561.953014 -233.48313 
L 563.53959 -236.039972 
L 564.797508 -238.596815 
L 565.805481 -241.153657 
L 566.636475 -243.7105 
L 567.355601 -246.267342 
L 568.018728 -248.824184 
L 568.671724 -251.381027 
L 569.350225 -253.937869 
L 570.079815 -256.494711 
L 570.876549 -259.051554 
L 571.74772 -261.608396 
L 572.692826 -264.165239 
L 573.704697 -266.722081 
L 574.770733 -269.278923 
L 575.874234 -271.835766 
L 576.995785 -274.392608 
L 578.11464 -276.94945 
L 579.210067 -279.506293 
L 580.262586 -282.063135 
L 581.255041 -284.619978 
L 582.173451 -287.17682 
L 583.0076 -289.733662 
L 583.751339 -292.290505 
L 584.402606 -294.847347 
L 584.963191 -297.404189 
L 585.438292 -299.961032 
L 585.835925 -302.517874 
L 586.166261 -305.074717 
L 586.440949 -307.631559 
L 586.672494 -310.188401 
L 586.873707 -312.745244 
L 587.057269 -315.302086 
L 587.235377 -317.858929 
L 587.419482 -320.415771 
L 587.620068 -322.972613 
L 587.846464 -325.529456 
L 588.106644 -328.086298 
L 588.407033 -330.64314 
L 588.752291 -333.199983 
L 589.145118 -335.756825 
L 589.586095 -338.313668 
L 590.073588 -340.87051 
L 590.603759 -343.427352 
L 591.170691 -345.984195 
L 591.766641 -348.541037 
L 592.382419 -351.097879 
L 593.007861 -353.654722 
L 593.632363 -356.211564 
L 594.245447 -358.768407 
L 594.837284 -361.325249 
L 595.399168 -363.882091 
L 595.923881 -366.438934 
L 596.405932 -368.995776 
L 596.841672 -371.552618 
L 597.229278 -374.109461 
L 597.568627 -376.666303 
L 597.861078 -379.223146 
L 598.109204 -381.779988 
L 600.043296 -381.779988 
L 600.043296 -381.779988 
L 600.291422 -379.223146 
L 600.583873 -376.666303 
L 600.923222 -374.109461 
L 601.310828 -371.552618 
L 601.746568 -368.995776 
L 602.228619 -366.438934 
L 602.753332 -363.882091 
L 603.315216 -361.325249 
L 603.907053 -358.768407 
L 604.520137 -356.211564 
L 605.144639 -353.654722 
L 605.770081 -351.097879 
L 606.385859 -348.541037 
L 606.981809 -345.984195 
L 607.548741 -343.427352 
L 608.078912 -340.87051 
L 608.566405 -338.313668 
L 609.007382 -335.756825 
L 609.400209 -333.199983 
L 609.745467 -330.64314 
L 610.045856 -328.086298 
L 610.306036 -325.529456 
L 610.532432 -322.972613 
L 610.733018 -320.415771 
L 610.917123 -317.858929 
L 611.095231 -315.302086 
L 611.278793 -312.745244 
L 611.480006 -310.188401 
L 611.711551 -307.631559 
L 611.986239 -305.074717 
L 612.316575 -302.517874 
L 612.714208 -299.961032 
L 613.189309 -297.404189 
L 613.749894 -294.847347 
L 614.401161 -292.290505 
L 615.1449 -289.733662 
L 615.979049 -287.17682 
L 616.897459 -284.619978 
L 617.889914 -282.063135 
L 618.942433 -279.506293 
L 620.03786 -276.94945 
L 621.156715 -274.392608 
L 622.278266 -271.835766 
L 623.381767 -269.278923 
L 624.447803 -266.722081 
L 625.459674 -264.165239 
L 626.40478 -261.608396 
L 627.275951 -259.051554 
L 628.072685 -256.494711 
L 628.802275 -253.937869 
L 629.480776 -251.381027 
L 630.133772 -248.824184 
L 630.796899 -246.267342 
L 631.516025 -243.7105 
L 632.347019 -241.153657 
L 633.354992 -238.596815 
L 634.61291 -236.039972 
L 636.199486 -233.48313 
L 638.196289 -230.926288 
L 640.684044 -228.369445 
L 643.738178 -225.812603 
L 647.423715 -223.255761 
L 651.789749 -220.698918 
L 656.863761 -218.142076 
L 662.646168 -215.585233 
L 669.105528 -213.028391 
L 676.174875 -210.471549 
L 683.749626 -207.914706 
L 691.6875 -205.357864 
L 699.810731 -202.801021 
L 707.91078 -200.244179 
L 715.7555 -197.687337 
L 723.098554 -195.130494 
L 729.690642 -192.573652 
L 735.291885 -190.01681 
L 739.684583 -187.459967 
L 742.685426 -184.903125 
L 744.15625 -182.346282 
L 744.012472 -179.78944 
L 742.228499 -177.232598 
L 738.839653 -174.675755 
L 733.940394 -172.118913 
L 727.678988 -169.562071 
L 720.249015 -167.005228 
L 711.878408 -164.448386 
L 702.816882 -161.891543 
L 693.322725 -159.334701 
L 683.649928 -156.777859 
L 674.036543 -154.221016 
L 664.69499 -151.664174 
L 655.804819 -149.107332 
L 647.508181 -146.550489 
L 639.908009 -143.993647 
L 633.068711 -141.436804 
L 627.018958 -138.879962 
L 621.756097 -136.32312 
L 617.251606 -133.766277 
L 613.457062 -131.209435 
L 610.310106 -128.652593 
z
" style="stroke: #4c4c4c; stroke-width: 1.5"/>
    </defs>
    <g clip-path="url(#pf648dc962e)">
     <use xlink:href="#m69d9cff727" x="0" y="640.68" style="fill: #cc8963; stroke: #4c4c4c; stroke-width: 1.5"/>
    </g>
   </g>
   <g id="line2d_7">
    <path d="M 236.37625 467.619168 
L 236.37625 403.962808 
" clip-path="url(#pf648dc962e)" style="fill: none; stroke: #4c4c4c; stroke-width: 1.5; stroke-linecap: round"/>
   </g>
   <g id="line2d_8">
    <path d="M 236.37625 453.882784 
L 236.37625 414.109506 
" clip-path="url(#pf648dc962e)" style="fill: none; stroke: #4c4c4c; stroke-width: 4.5; stroke-linecap: round"/>
   </g>
   <g id="line2d_9">
    <path d="M 599.07625 467.834223 
L 599.07625 394.945692 
" clip-path="url(#pf648dc962e)" style="fill: none; stroke: #4c4c4c; stroke-width: 1.5; stroke-linecap: round"/>
   </g>
   <g id="line2d_10">
    <path d="M 599.07625 463.826375 
L 599.07625 435.250091 
" clip-path="url(#pf648dc962e)" style="fill: none; stroke: #4c4c4c; stroke-width: 4.5; stroke-linecap: round"/>
   </g>
   <g id="patch_3">
    <path d="M 55.02625 605.16 
L 55.02625 7.2 
" style="fill: none; stroke: #cccccc; stroke-width: 1.25; stroke-linejoin: miter; stroke-linecap: square"/>
   </g>
   <g id="patch_4">
    <path d="M 780.42625 605.16 
L 780.42625 7.2 
" style="fill: none; stroke: #cccccc; stroke-width: 1.25; stroke-linejoin: miter; stroke-linecap: square"/>
   </g>
   <g id="patch_5">
    <path d="M 55.02625 605.16 
L 780.42625 605.16 
" style="fill: none; stroke: #cccccc; stroke-width: 1.25; stroke-linejoin: miter; stroke-linecap: square"/>
   </g>
   <g id="patch_6">
    <path d="M 55.02625 7.2 
L 780.42625 7.2 
" style="fill: none; stroke: #cccccc; stroke-width: 1.25; stroke-linejoin: miter; stroke-linecap: square"/>
   </g>
   <g id="PathCollection_1">
    <defs>
     <path id="m3eca0d6015" d="M 0 1.5 
C 0.397805 1.5 0.77937 1.341951 1.06066 1.06066 
C 1.341951 0.77937 1.5 0.397805 1.5 0 
C 1.5 -0.397805 1.341951 -0.77937 1.06066 -1.06066 
C 0.77937 -1.341951 0.397805 -1.5 0 -1.5 
C -0.397805 -1.5 -0.77937 -1.341951 -1.06066 -1.06066 
C -1.341951 -0.77937 -1.5 -0.397805 -1.5 0 
C -1.5 0.397805 -1.341951 0.77937 -1.06066 1.06066 
C -0.77937 1.341951 -0.397805 1.5 0 1.5 
z
" style="stroke: #4c4c4c"/>
    </defs>
    <g clip-path="url(#pf648dc962e)">
     <use xlink:href="#m3eca0d6015" x="236.37625" y="436.310161" style="fill: #ffffff; stroke: #4c4c4c"/>
    </g>
   </g>
   <g id="PathCollection_2">
    <g clip-path="url(#pf648dc962e)">
     <use xlink:href="#m3eca0d6015" x="599.07625" y="459.527442" style="fill: #ffffff; stroke: #4c4c4c"/>
    </g>
   </g>
   <g id="PathCollection_3">
    <defs>
     <path id="C0_0_e76aa28d41" d="M 0 2.5 
C 0.663008 2.5 1.29895 2.236584 1.767767 1.767767 
C 2.236584 1.29895 2.5 0.663008 2.5 -0 
C 2.5 -0.663008 2.236584 -1.29895 1.767767 -1.767767 
C 1.29895 -2.236584 0.663008 -2.5 0 -2.5 
C -0.663008 -2.5 -1.29895 -2.236584 -1.767767 -1.767767 
C -2.236584 -1.29895 -2.5 -0.663008 -2.5 0 
C -2.5 0.663008 -2.236584 1.29895 -1.767767 1.767767 
C -1.29895 2.236584 -0.663008 2.5 0 2.5 
z
"/>
    </defs>
    <g clip-path="url(#pf648dc962e)">
     <use xlink:href="#C0_0_e76aa28d41" x="217.449034" y="212.294255" style="fill: #4c72b0"/>
    </g>
    <g clip-path="url(#pf648dc962e)">
     <use xlink:href="#C0_0_e76aa28d41" x="218.701695" y="440.741603" style="fill: #4c72b0"/>
    </g>
    <g clip-path="url(#pf648dc962e)">
     <use xlink:href="#C0_0_e76aa28d41" x="201.406061" y="417.459155" style="fill: #4c72b0"/>
    </g>
    <g clip-path="url(#pf648dc962e)">
     <use xlink:href="#C0_0_e76aa28d41" x="239.976839" y="457.498536" style="fill: #4c72b0"/>
    </g>
    <g clip-path="url(#pf648dc962e)">
     <use xlink:href="#C0_0_e76aa28d41" x="261.014892" y="144.740832" style="fill: #4c72b0"/>
    </g>
    <g clip-path="url(#pf648dc962e)">
     <use xlink:href="#C0_0_e76aa28d41" x="216.045545" y="436.310161" style="fill: #4c72b0"/>
    </g>
    <g clip-path="url(#pf648dc962e)">
     <use xlink:href="#C0_0_e76aa28d41" x="225.207545" y="467.619168" style="fill: #4c72b0"/>
    </g>
    <g clip-path="url(#pf648dc962e)">
     <use xlink:href="#C0_0_e76aa28d41" x="265.257336" y="450.267031" style="fill: #4c72b0"/>
    </g>
    <g clip-path="url(#pf648dc962e)">
     <use xlink:href="#C0_0_e76aa28d41" x="271.445824" y="440.656885" style="fill: #4c72b0"/>
    </g>
    <g clip-path="url(#pf648dc962e)">
     <use xlink:href="#C0_0_e76aa28d41" x="256.292768" y="415.623582" style="fill: #4c72b0"/>
    </g>
    <g clip-path="url(#pf648dc962e)">
     <use xlink:href="#C0_0_e76aa28d41" x="206.5791" y="430.697002" style="fill: #4c72b0"/>
    </g>
    <g clip-path="url(#pf648dc962e)">
     <use xlink:href="#C0_0_e76aa28d41" x="269.496782" y="403.962808" style="fill: #4c72b0"/>
    </g>
    <g clip-path="url(#pf648dc962e)">
     <use xlink:href="#C0_0_e76aa28d41" x="236.551853" y="412.59543" style="fill: #4c72b0"/>
    </g>
    <g clip-path="url(#pf648dc962e)">
     <use xlink:href="#C0_0_e76aa28d41" x="243.82642" y="467.534449" style="fill: #4c72b0"/>
    </g>
    <g clip-path="url(#pf648dc962e)">
     <use xlink:href="#C0_0_e76aa28d41" x="205.518616" y="467.560516" style="fill: #4c72b0"/>
    </g>
   </g>
   <g id="PathCollection_4">
    <defs>
     <path id="C1_0_add4550bc8" d="M 0 2.5 
C 0.663008 2.5 1.29895 2.236584 1.767767 1.767767 
C 2.236584 1.29895 2.5 0.663008 2.5 -0 
C 2.5 -0.663008 2.236584 -1.29895 1.767767 -1.767767 
C 1.29895 -2.236584 0.663008 -2.5 0 -2.5 
C -0.663008 -2.5 -1.29895 -2.236584 -1.767767 -1.767767 
C -2.236584 -1.29895 -2.5 -0.663008 -2.5 0 
C -2.5 0.663008 -2.236584 1.29895 -1.767767 1.767767 
C -1.29895 2.236584 -0.663008 2.5 0 2.5 
z
"/>
    </defs>
    <g clip-path="url(#pf648dc962e)">
     <use xlink:href="#C1_0_add4550bc8" x="584.683172" y="453.010615" style="fill: #dd8452"/>
    </g>
    <g clip-path="url(#pf648dc962e)">
     <use xlink:href="#C1_0_add4550bc8" x="619.156611" y="463.066078" style="fill: #dd8452"/>
    </g>
    <g clip-path="url(#pf648dc962e)">
     <use xlink:href="#C1_0_add4550bc8" x="571.609614" y="462.66638" style="fill: #dd8452"/>
    </g>
    <g clip-path="url(#pf648dc962e)">
     <use xlink:href="#C1_0_add4550bc8" x="588.771669" y="375.649369" style="fill: #dd8452"/>
    </g>
    <g clip-path="url(#pf648dc962e)">
     <use xlink:href="#C1_0_add4550bc8" x="603.984603" y="463.826375" style="fill: #dd8452"/>
    </g>
    <g clip-path="url(#pf648dc962e)">
     <use xlink:href="#C1_0_add4550bc8" x="632.559037" y="450.492948" style="fill: #dd8452"/>
    </g>
    <g clip-path="url(#pf648dc962e)">
     <use xlink:href="#C1_0_add4550bc8" x="586.002373" y="463.552668" style="fill: #dd8452"/>
    </g>
    <g clip-path="url(#pf648dc962e)">
     <use xlink:href="#C1_0_add4550bc8" x="566.637676" y="371.543769" style="fill: #dd8452"/>
    </g>
    <g clip-path="url(#pf648dc962e)">
     <use xlink:href="#C1_0_add4550bc8" x="621.349586" y="435.250091" style="fill: #dd8452"/>
    </g>
    <g clip-path="url(#pf648dc962e)">
     <use xlink:href="#C1_0_add4550bc8" x="608.369682" y="455.743338" style="fill: #dd8452"/>
    </g>
    <g clip-path="url(#pf648dc962e)">
     <use xlink:href="#C1_0_add4550bc8" x="587.410693" y="467.834223" style="fill: #dd8452"/>
    </g>
    <g clip-path="url(#pf648dc962e)">
     <use xlink:href="#C1_0_add4550bc8" x="624.16142" y="461.308707" style="fill: #dd8452"/>
    </g>
    <g clip-path="url(#pf648dc962e)">
     <use xlink:href="#C1_0_add4550bc8" x="619.115192" y="447.321426" style="fill: #dd8452"/>
    </g>
    <g clip-path="url(#pf648dc962e)">
     <use xlink:href="#C1_0_add4550bc8" x="563.969875" y="444.401888" style="fill: #dd8452"/>
    </g>
    <g clip-path="url(#pf648dc962e)">
     <use xlink:href="#C1_0_add4550bc8" x="622.323429" y="398.534291" style="fill: #dd8452"/>
    </g>
    <g clip-path="url(#pf648dc962e)">
     <use xlink:href="#C1_0_add4550bc8" x="568.440383" y="334.621603" style="fill: #dd8452"/>
    </g>
    <g clip-path="url(#pf648dc962e)">
     <use xlink:href="#C1_0_add4550bc8" x="573.551036" y="303.093197" style="fill: #dd8452"/>
    </g>
    <g clip-path="url(#pf648dc962e)">
     <use xlink:href="#C1_0_add4550bc8" x="579.876827" y="465.112362" style="fill: #dd8452"/>
    </g>
    <g clip-path="url(#pf648dc962e)">
     <use xlink:href="#C1_0_add4550bc8" x="597.253458" y="413.331832" style="fill: #dd8452"/>
    </g>
    <g clip-path="url(#pf648dc962e)">
     <use xlink:href="#C1_0_add4550bc8" x="600.233163" y="467.499693" style="fill: #dd8452"/>
    </g>
    <g clip-path="url(#pf648dc962e)">
     <use xlink:href="#C1_0_add4550bc8" x="594.901304" y="467.738643" style="fill: #dd8452"/>
    </g>
    <g clip-path="url(#pf648dc962e)">
     <use xlink:href="#C1_0_add4550bc8" x="584.003251" y="467.756021" style="fill: #dd8452"/>
    </g>
    <g clip-path="url(#pf648dc962e)">
     <use xlink:href="#C1_0_add4550bc8" x="567.475067" y="461.962562" style="fill: #dd8452"/>
    </g>
    <g clip-path="url(#pf648dc962e)">
     <use xlink:href="#C1_0_add4550bc8" x="633.946303" y="459.527442" style="fill: #dd8452"/>
    </g>
    <g clip-path="url(#pf648dc962e)">
     <use xlink:href="#C1_0_add4550bc8" x="606.241055" y="464.853861" style="fill: #dd8452"/>
    </g>
    <g clip-path="url(#pf648dc962e)">
     <use xlink:href="#C1_0_add4550bc8" x="562.952953" y="452.849867" style="fill: #dd8452"/>
    </g>
    <g clip-path="url(#pf648dc962e)">
     <use xlink:href="#C1_0_add4550bc8" x="583.65801" y="460.053132" style="fill: #dd8452"/>
    </g>
    <g clip-path="url(#pf648dc962e)">
     <use xlink:href="#C1_0_add4550bc8" x="584.490466" y="394.945692" style="fill: #dd8452"/>
    </g>
    <g clip-path="url(#pf648dc962e)">
     <use xlink:href="#C1_0_add4550bc8" x="577.284767" y="464.530192" style="fill: #dd8452"/>
    </g>
   </g>
  </g>
 </g>
 <defs>
  <clipPath id="pf648dc962e">
   <rect x="55.02625" y="7.2" width="725.4" height="597.96"/>
  </clipPath>
 </defs>
</svg>
